<svg width="40" height="39" viewBox="0 0 40 39" fill="none" xmlns="http://www.w3.org/2000/svg">
<g clip-path="url(#clip0_92_15)">
<path d="M20.0063 0.464294C11.8053 0.464294 9.40683 0.472695 8.94061 0.511098C7.25762 0.65001 6.21036 0.913132 5.06943 1.47718C4.19017 1.91072 3.49673 2.41326 2.81235 3.11772C1.56597 4.40243 0.810593 5.98296 0.537145 7.86172C0.404198 8.7738 0.365522 8.95981 0.357666 13.6186C0.354645 15.1715 0.357666 17.2153 0.357666 19.9566C0.357666 28.0933 0.366731 30.4725 0.406011 30.9346C0.541979 32.5607 0.798809 33.5838 1.34268 34.7029C2.38209 36.8451 4.36723 38.4532 6.70589 39.0533C7.51566 39.2603 8.41003 39.3743 9.55821 39.4283C10.0447 39.4493 15.003 39.4643 19.9643 39.4643C24.9257 39.4643 29.887 39.4583 30.3614 39.4343C31.6909 39.3722 32.4629 39.2693 33.3164 39.0503C34.476 38.755 35.5568 38.2119 36.4831 37.4589C37.4094 36.706 38.1591 35.7613 38.6796 34.6909C39.2129 33.5988 39.4834 32.5367 39.6057 30.9955C39.6323 30.6595 39.6435 25.3019 39.6435 19.9515C39.6435 14.6003 39.6314 9.25264 39.6048 8.91661C39.481 7.35048 39.2105 6.29739 38.66 5.18429C38.2083 4.27312 37.7067 3.59266 36.9785 2.8969C35.6793 1.6644 34.09 0.914333 32.1958 0.64311C31.2781 0.511398 31.0953 0.472395 26.3999 0.464294H20.0063Z" fill="url(#paint0_radial_92_15)"/>
<path d="M20.0063 0.464294C11.8053 0.464294 9.40683 0.472695 8.94061 0.511098C7.25762 0.65001 6.21036 0.913132 5.06943 1.47718C4.19017 1.91072 3.49673 2.41326 2.81235 3.11772C1.56597 4.40243 0.810593 5.98296 0.537145 7.86172C0.404198 8.7738 0.365522 8.95981 0.357666 13.6186C0.354645 15.1715 0.357666 17.2153 0.357666 19.9566C0.357666 28.0933 0.366731 30.4725 0.406011 30.9346C0.541979 32.5607 0.798809 33.5838 1.34268 34.7029C2.38209 36.8451 4.36723 38.4532 6.70589 39.0533C7.51566 39.2603 8.41003 39.3743 9.55821 39.4283C10.0447 39.4493 15.003 39.4643 19.9643 39.4643C24.9257 39.4643 29.887 39.4583 30.3614 39.4343C31.6909 39.3722 32.4629 39.2693 33.3164 39.0503C34.476 38.755 35.5568 38.2119 36.4831 37.4589C37.4094 36.706 38.1591 35.7613 38.6796 34.6909C39.2129 33.5988 39.4834 32.5367 39.6057 30.9955C39.6323 30.6595 39.6435 25.3019 39.6435 19.9515C39.6435 14.6003 39.6314 9.25264 39.6048 8.91661C39.481 7.35048 39.2105 6.29739 38.66 5.18429C38.2083 4.27312 37.7067 3.59266 36.9785 2.8969C35.6793 1.6644 34.09 0.914333 32.1958 0.64311C31.2781 0.511398 31.0953 0.472395 26.3999 0.464294H20.0063Z" fill="url(#paint1_radial_92_15)"/>
<path d="M19.9973 5.56476C16.0584 5.56476 15.5641 5.58186 14.0171 5.65177C12.4731 5.72197 11.4192 5.96469 10.497 6.32082C9.54309 6.68865 8.73393 7.1807 7.92779 7.98146C7.12104 8.78193 6.62551 9.5854 6.25386 10.5323C5.8943 11.4483 5.64956 12.495 5.58006 14.0276C5.51117 15.5637 5.49304 16.0548 5.49304 19.966C5.49304 23.8771 5.51057 24.3665 5.58067 25.9026C5.65167 27.4357 5.89611 28.4822 6.25447 29.3979C6.62521 30.3451 7.12074 31.1485 7.92718 31.949C8.73302 32.7501 9.54219 33.2433 10.4955 33.6111C11.4183 33.9673 12.4725 34.21 14.0162 34.2802C15.5632 34.3501 16.0572 34.3672 19.9958 34.3672C23.9349 34.3672 24.4277 34.3501 25.9747 34.2802C27.5187 34.21 28.5739 33.9673 29.4966 33.6111C30.4502 33.2433 31.2582 32.7501 32.064 31.949C32.8708 31.1485 33.3663 30.3451 33.7379 29.3982C34.0945 28.4822 34.3392 27.4354 34.4117 25.9029C34.4812 24.3668 34.4994 23.8771 34.4994 19.966C34.4994 16.0548 34.4812 15.564 34.4117 14.0279C34.3392 12.4947 34.0945 11.4483 33.7379 10.5326C33.3663 9.5854 32.8708 8.78193 32.064 7.98146C31.2573 7.1804 30.4505 6.68835 29.4957 6.32082C28.5711 5.96469 27.5166 5.72197 25.9726 5.65177C24.4256 5.58186 23.9331 5.56476 19.993 5.56476H19.9973ZM18.6962 8.15998C19.0823 8.15938 19.5132 8.15998 19.9973 8.15998C23.8696 8.15998 24.3286 8.17378 25.8578 8.24279C27.2719 8.30699 28.0394 8.54161 28.5506 8.73873C29.2274 8.99975 29.71 9.31178 30.2173 9.81582C30.7249 10.3199 31.0391 10.7999 31.3026 11.472C31.5011 11.979 31.7377 12.7411 31.8021 14.1452C31.8715 15.6633 31.8867 16.1194 31.8867 19.9627C31.8867 23.806 31.8715 24.262 31.8021 25.7802C31.7374 27.1843 31.5011 27.9464 31.3026 28.4534C31.0397 29.1255 30.7249 29.604 30.2173 30.1077C29.7097 30.6118 29.2277 30.9238 28.5506 31.1848C28.04 31.3828 27.2719 31.6169 25.8578 31.6811C24.3289 31.7501 23.8696 31.7651 19.9973 31.7651C16.1246 31.7651 15.6656 31.7501 14.1367 31.6811C12.7226 31.6163 11.9552 31.3816 11.4436 31.1845C10.7668 30.9235 10.2834 30.6115 9.77575 30.1074C9.26813 29.6034 8.9539 29.1246 8.69042 28.4522C8.4919 27.9452 8.25532 27.1831 8.19096 25.779C8.12147 24.2608 8.10757 23.8048 8.10757 19.9591C8.10757 16.1134 8.12147 15.6597 8.19096 14.1416C8.25562 12.7375 8.4919 11.9754 8.69042 11.4678C8.95329 10.7957 9.26813 10.3157 9.77575 9.81162C10.2834 9.30758 10.7668 8.99555 11.4436 8.73393C11.9549 8.53591 12.7226 8.30189 14.1367 8.23739C15.4746 8.17738 15.9931 8.15938 18.6962 8.15638V8.15998ZM27.739 10.5512C27.3948 10.5512 27.0583 10.6526 26.772 10.8425C26.4858 11.0324 26.2627 11.3023 26.131 11.6181C25.9993 11.9339 25.9649 12.2814 26.0321 12.6167C26.0993 12.9519 26.2651 13.2599 26.5086 13.5015C26.752 13.7432 27.0622 13.9077 27.3998 13.9743C27.7375 14.041 28.0874 14.0066 28.4055 13.8758C28.7235 13.7449 28.9952 13.5233 29.1864 13.239C29.3776 12.9547 29.4795 12.6205 29.4794 12.2787C29.4794 11.3246 28.6999 10.5506 27.739 10.5506V10.5512ZM19.9973 12.5704C15.8841 12.5704 12.5492 15.8817 12.5492 19.966C12.5492 24.0502 15.8841 27.3601 19.9973 27.3601C24.1105 27.3601 27.4444 24.0502 27.4444 19.966C27.4444 15.8817 24.1102 12.5704 19.997 12.5704H19.9973ZM19.9973 15.1656C22.6671 15.1656 24.8317 17.3147 24.8317 19.966C24.8317 22.617 22.6671 24.7664 19.9973 24.7664C17.3271 24.7664 15.1628 22.617 15.1628 19.966C15.1628 17.3147 17.3271 15.1656 19.9973 15.1656V15.1656Z" fill="white"/>
</g>
<defs>
<radialGradient id="paint0_radial_92_15" cx="0" cy="0" r="1" gradientUnits="userSpaceOnUse" gradientTransform="translate(10.792 42.4681) rotate(-90) scale(38.6519 36.214)">
<stop stop-color="#FFDD55"/>
<stop offset="0.1" stop-color="#FFDD55"/>
<stop offset="0.5" stop-color="#FF543E"/>
<stop offset="1" stop-color="#C837AB"/>
</radialGradient>
<radialGradient id="paint1_radial_92_15" cx="0" cy="0" r="1" gradientUnits="userSpaceOnUse" gradientTransform="translate(-6.22449 3.27379) rotate(78.5995) scale(17.2825 71.7228)">
<stop stop-color="#3771C8"/>
<stop offset="0.128" stop-color="#3771C8"/>
<stop offset="1" stop-color="#6600FF" stop-opacity="0"/>
</radialGradient>
<clipPath id="clip0_92_15">
<rect width="40" height="39" fill="white"/>
</clipPath>
</defs>
</svg>
