<svg width="27" height="21" viewBox="0 0 27 21" fill="none" xmlns="http://www.w3.org/2000/svg">
<path d="M1.85303 0C0.829569 0 0 0.829569 0 1.85303C0 2.87628 0.829569 3.70606 1.85303 3.70606H24.7057C25.7292 3.70606 26.5588 2.8765 26.5588 1.85303C26.5588 0.829569 25.7292 0 24.7057 0H1.85303ZM1.85303 8.64697C0.829569 8.64697 0 9.47654 0 10.5C0 11.5232 0.829569 12.353 1.85303 12.353H24.7057C25.7292 12.353 26.5588 11.5235 26.5588 10.5C26.5588 9.47654 25.7292 8.64697 24.7057 8.64697H1.85303ZM1.85303 17.2939C0.829569 17.2939 0 18.1235 0 19.147C0 20.1702 0.829569 21 1.85303 21H24.7057C25.7292 21 26.5588 20.1704 26.5588 19.147C26.5588 18.1235 25.7292 17.2939 24.7057 17.2939H1.85303Z" fill="#333333"/>
</svg>
