<svg width="47" height="38" viewBox="0 0 47 38" fill="none" xmlns="http://www.w3.org/2000/svg">
<path d="M47 4.49837C45.2707 5.26135 43.4123 5.77702 41.4617 6.00894C43.4527 4.82162 44.9815 2.94161 45.7015 0.701582C43.8385 1.80082 41.7748 2.5992 39.5784 3.02953C37.8194 1.16508 35.3134 0 32.54 0C27.2146 0 22.8971 4.29518 22.8971 9.59296C22.8971 10.3448 22.9825 11.077 23.1469 11.7791C15.1329 11.3791 8.02777 7.55988 3.2719 1.75601C2.44189 3.17285 1.96637 4.82077 1.96637 6.57882C1.96637 9.90698 3.66885 12.8433 6.25618 14.5635C4.67542 14.5138 3.18869 14.0823 1.88849 13.3637C1.8878 13.4038 1.88781 13.444 1.88781 13.4843C1.88781 18.1323 5.21162 22.0097 9.6228 22.8909C8.8136 23.1101 7.96175 23.2273 7.08223 23.2273C6.46093 23.2273 5.85682 23.1672 5.26818 23.0552C6.49514 26.8665 10.0562 29.64 14.2757 29.7175C10.9756 32.2904 6.81783 33.824 2.30023 33.824C1.52197 33.824 0.754366 33.7787 0 33.6901C4.26729 36.4119 9.33588 38 14.7813 38C32.5175 38 42.2163 23.3822 42.2163 10.7054C42.2163 10.2894 42.207 9.87568 42.1884 9.46434C44.0723 8.1118 45.7072 6.42216 47 4.49837Z" fill="#55ACEE"/>
</svg>
