<svg width="333" height="86" viewBox="0 0 333 86" fill="none" xmlns="http://www.w3.org/2000/svg">
<path d="M132.343 19.1806H138.757V53.8286C138.202 57.7843 136.568 61.1251 133.854 63.8511C130.564 67.1304 126.607 68.7701 121.981 68.7701C117.355 68.7701 113.398 67.1406 110.108 63.8818C106.839 60.6025 105.205 56.6571 105.205 52.0455V19.1806H111.619V52.0455C111.619 54.8739 112.627 57.3027 114.641 59.3317C116.677 61.3403 119.123 62.3446 121.981 62.3446C124.859 62.3446 127.306 61.3403 129.321 59.3317C131.335 57.3231 132.343 54.8944 132.343 52.0455V19.1806ZM172.245 43.1298C168.75 41.9616 165.912 40.3014 163.733 38.1494C161.574 35.9768 160.495 33.2919 160.495 30.0946C160.495 26.9587 161.615 24.2635 163.856 22.009C166.118 19.7544 168.853 18.6272 172.06 18.6272C175.226 18.6272 177.94 19.7442 180.201 21.9782C181.476 23.208 182.545 25.1653 183.408 27.8502L177.611 30.1253C176.912 28.2397 176.274 27.0099 175.698 26.436C174.691 25.4522 173.478 24.9604 172.06 24.9604C170.62 24.9604 169.397 25.4625 168.39 26.4668C167.382 27.4506 166.879 28.6598 166.879 30.0946C166.879 31.5292 167.382 32.7488 168.39 33.753C169.521 34.8598 171.083 35.8744 173.077 36.7967C176.942 38.0469 180.222 40.0145 182.915 42.6994C185.937 45.6713 187.448 49.2786 187.448 53.5212C187.448 57.7638 185.937 61.3916 182.915 64.4045C179.913 67.3968 176.294 68.893 172.06 68.893C167.804 68.893 164.175 67.3866 161.173 64.3737C158.768 61.9757 157.247 58.6656 156.609 54.4435L162.808 52.1992C163.199 55.827 164.155 58.3992 165.676 59.9159C167.444 61.6785 169.572 62.5598 172.06 62.5598C174.548 62.5598 176.675 61.6785 178.443 59.9159C180.212 58.1532 181.095 56.0217 181.095 53.5212C181.095 51.0412 180.212 48.9199 178.443 47.1573C176.757 45.4766 174.691 44.1342 172.245 43.1298ZM211.746 48.0181V68.3704H205.362V19.1806H211.746V41.6542H226.98V19.1806H233.363V68.3704H226.98V48.0181H211.746ZM261.3 19.1806V68.3704H254.916V19.1806H261.3ZM307.369 18.5349C314.339 18.5349 320.291 20.9944 325.225 25.9134C330.159 30.8324 332.626 36.7659 332.626 43.714C332.626 50.662 330.159 56.5955 325.225 61.5145C320.291 66.4335 314.339 68.893 307.369 68.893C300.4 68.893 294.448 66.4335 289.513 61.5145C284.579 56.5955 282.112 50.662 282.112 43.714C282.112 36.7659 284.579 30.8324 289.513 25.9134C294.448 20.9944 300.4 18.5349 307.369 18.5349ZM307.369 24.9604C302.168 24.9604 297.727 26.7947 294.047 30.4635C290.387 34.1117 288.558 38.5286 288.558 43.714C288.558 48.8994 290.397 53.3265 294.078 56.9952C297.758 60.664 302.188 62.4983 307.369 62.4983C312.571 62.4983 317.001 60.664 320.661 56.9952C324.341 53.3265 326.181 48.8994 326.181 43.714C326.181 38.5286 324.341 34.1117 320.661 30.4635C317.001 26.7947 312.571 24.9604 307.369 24.9604Z" fill="white"/>
<g clip-path="url(#clip0_90_10)">
<path d="M81.5084 31.5604C78.387 17.5424 64.1876 17.9529 64.1876 17.9529L62.8431 13.3248C61.4978 8.69663 53.6493 -0.977705 41.7297 -0.121097C38.3268 0.124408 32.0455 2.15121 27.5594 6.23658C22.1322 3.4129 15.257 2.3218 8.45395 5.70736C-5.22242 12.5168 0.327185 22.5182 5.65159 34.9175C12.2021 50.1671 7.4241 70.0884 7.4241 70.0884C20.7894 49.3825 7.31248 25.499 7.02617 21.4534C6.27877 10.8639 16.0916 8.87854 25.3562 10.7931C33.5799 12.4916 38.2161 18.4909 38.2161 18.4909C38.0161 15.4385 34.9979 11.1755 30.4441 7.99112C34.8366 5.71324 42.9509 2.88564 50.1097 7.96302C60.5468 15.3668 60.9923 23.4063 60.9923 23.4063C60.9923 23.4063 77.1677 21.7075 75.1158 35.8714C73.0638 50.0368 54.9395 43.4196 54.9395 43.4196C67.3469 52.5576 84.6322 45.5796 81.5103 31.5629L81.5084 31.5604Z" fill="white"/>
<path d="M64.8033 78.7703C64.8033 78.7703 59.4396 56.4104 60.9771 46.5421C60.9771 46.5421 56.7093 57.1868 57.2509 64.6943L57.7932 72.2005C57.7932 72.2005 47.5769 68.3243 26.0758 70.4921C6.78698 72.4372 5.06934 75.0725 5.06934 75.0725L5.66949 86.3639C5.66949 86.3639 9.22184 85.8697 10.9193 85.6855C10.9193 85.6855 26.7832 82.6939 41.9177 82.4548C50.9849 82.3118 56.6694 82.8781 59.7718 83.3539C55.1274 82.4991 45.3996 80.9824 32.8099 80.5084C19.3846 80.0035 12.4988 81.0868 9.91058 81.655C9.72703 80.4952 9.56068 79.0658 9.45982 77.3169C16.429 75.5781 28.8091 74.4506 37.2708 74.8783C49.6416 75.5072 64.8033 78.7709 64.8033 78.7709V78.7703Z" fill="white"/>
<path d="M59.7723 83.3539C61.7104 83.7095 62.7696 83.9525 62.7696 83.9525C62.7696 83.9525 61.8477 83.6734 59.7723 83.3539Z" fill="white"/>
</g>
<defs>
<clipPath id="clip0_90_10">
<rect width="82" height="86" fill="white"/>
</clipPath>
</defs>
</svg>
