<svg width="228" height="51" viewBox="0 0 228 51" fill="none" xmlns="http://www.w3.org/2000/svg">
<path d="M27.3429 1.18056H33.7573V35.8286C33.2022 39.7843 31.5678 43.1251 28.8539 45.8511C25.5645 49.1304 21.6068 50.7701 16.981 50.7701C12.3552 50.7701 8.39754 49.1406 5.10808 45.8818C1.83917 42.6025 0.204712 38.6571 0.204712 34.0455V1.18056H6.6192V34.0455C6.6192 36.8739 7.62657 39.3027 9.64137 41.3317C11.6768 43.3403 14.1233 44.3446 16.981 44.3446C19.8593 44.3446 22.3059 43.3403 24.3207 41.3317C26.3355 39.3231 27.3429 36.8944 27.3429 34.0455V1.18056ZM67.2448 25.1298C63.7496 23.9616 60.9124 22.3014 58.7331 20.1494C56.5744 17.9768 55.495 15.2919 55.495 12.0946C55.495 8.95869 56.6155 6.26351 58.8565 4.00898C61.118 1.75444 63.8526 0.627174 67.0597 0.627174C70.2258 0.627174 72.9397 1.74419 75.2008 3.97823C76.4759 5.20797 77.5446 7.16531 78.4079 9.85024L72.6107 12.1253C71.9115 10.2397 71.2743 9.00994 70.6983 8.43603C69.6909 7.45224 68.4783 6.96037 67.0597 6.96037C65.6204 6.96037 64.397 7.4625 63.3896 8.46682C62.3823 9.45062 61.8786 10.6598 61.8786 12.0946C61.8786 13.5292 62.3823 14.7488 63.3896 15.753C64.5208 16.8598 66.0833 17.8744 68.0772 18.7967C71.9425 20.0469 75.2216 22.0145 77.9147 24.6994C80.9368 27.6713 82.4482 31.2786 82.4482 35.5212C82.4482 39.7638 80.9368 43.3916 77.9147 46.4045C74.9134 49.3968 71.2945 50.893 67.0597 50.893C62.8038 50.893 59.1751 49.3866 56.1735 46.3737C53.768 43.9757 52.2467 40.6656 51.6093 36.4435L57.8079 34.1992C58.1985 37.827 59.1546 40.3992 60.6759 41.9159C62.444 43.6785 64.5719 44.5598 67.0597 44.5598C69.5475 44.5598 71.6753 43.6785 73.4431 41.9159C75.2115 40.1532 76.0951 38.0217 76.0951 35.5212C76.0951 33.0412 75.2115 30.9199 73.4431 29.1573C71.7574 27.4766 69.6909 26.1342 67.2448 25.1298ZM106.746 30.0181V50.3704H100.362V1.18056H106.746V23.6542H121.98V1.18056H128.363V50.3704H121.98V30.0181H106.746ZM156.3 1.18056V50.3704H149.916V1.18056H156.3ZM202.369 0.534943C209.339 0.534943 215.291 2.99443 220.225 7.91344C225.159 12.8324 227.626 18.7659 227.626 25.714C227.626 32.662 225.159 38.5955 220.225 43.5145C215.291 48.4335 209.339 50.893 202.369 50.893C195.4 50.893 189.448 48.4335 184.513 43.5145C179.579 38.5955 177.112 32.662 177.112 25.714C177.112 18.7659 179.579 12.8324 184.513 7.91344C189.448 2.99443 195.4 0.534943 202.369 0.534943ZM202.369 6.96037C197.168 6.96037 192.727 8.79473 189.047 12.4635C185.387 16.1117 183.558 20.5286 183.558 25.714C183.558 30.8994 185.397 35.3265 189.078 38.9952C192.758 42.664 197.188 44.4983 202.369 44.4983C207.571 44.4983 212.001 42.664 215.661 38.9952C219.341 35.3265 221.181 30.8994 221.181 25.714C221.181 20.5286 219.341 16.1117 215.661 12.4635C212.001 8.79473 207.571 6.96037 202.369 6.96037Z" fill="white"/>
</svg>
