<svg width="361" height="81" viewBox="0 0 361 81" fill="none" xmlns="http://www.w3.org/2000/svg">
<path d="M43.293 1.875H53.4492V56.9043C52.5703 63.1868 49.9824 68.4928 45.6855 72.8223C40.4772 78.0306 34.2109 80.6348 26.8867 80.6348C19.5625 80.6348 13.2962 78.0469 8.08789 72.8711C2.91211 67.6628 0.324219 61.3965 0.324219 54.0723V1.875H10.4805V54.0723C10.4805 58.5645 12.0755 62.4219 15.2656 65.6445C18.4883 68.8346 22.362 70.4297 26.8867 70.4297C31.444 70.4297 35.3177 68.8346 38.5078 65.6445C41.6979 62.4544 43.293 58.597 43.293 54.0723V1.875ZM106.471 39.9121C100.937 38.0566 96.4447 35.4199 92.9941 32.002C89.5762 28.5514 87.8672 24.2871 87.8672 19.209C87.8672 14.2285 89.6413 9.94792 93.1895 6.36719C96.7702 2.78646 101.1 0.996094 106.178 0.996094C111.191 0.996094 115.488 2.77018 119.068 6.31836C121.087 8.27148 122.779 11.3802 124.146 15.6445L114.967 19.2578C113.86 16.263 112.851 14.3099 111.939 13.3984C110.344 11.8359 108.424 11.0547 106.178 11.0547C103.899 11.0547 101.962 11.8522 100.367 13.4473C98.7721 15.0098 97.9746 16.9303 97.9746 19.209C97.9746 21.4876 98.7721 23.4245 100.367 25.0195C102.158 26.7773 104.632 28.3887 107.789 29.8535C113.909 31.8392 119.101 34.9642 123.365 39.2285C128.15 43.9486 130.543 49.6777 130.543 56.416C130.543 63.1543 128.15 68.916 123.365 73.7012C118.613 78.4538 112.883 80.8301 106.178 80.8301C99.4395 80.8301 93.694 78.4375 88.9414 73.6523C85.1328 69.8438 82.724 64.5866 81.7148 57.8809L91.5293 54.3164C92.1478 60.0781 93.6615 64.1634 96.0703 66.5723C98.8698 69.3717 102.239 70.7715 106.178 70.7715C110.117 70.7715 113.486 69.3717 116.285 66.5723C119.085 63.7728 120.484 60.3874 120.484 56.416C120.484 52.4772 119.085 49.1081 116.285 46.3086C113.616 43.6393 110.344 41.5072 106.471 39.9121ZM169.014 47.6758V80H158.906V1.875H169.014V37.5684H193.135V1.875H203.242V80H193.135V47.6758H169.014ZM247.475 1.875V80H237.367V1.875H247.475ZM320.418 0.849609C331.453 0.849609 340.877 4.75586 348.689 12.5684C356.502 20.3809 360.408 29.8047 360.408 40.8398C360.408 51.875 356.502 61.2988 348.689 69.1113C340.877 76.9238 331.453 80.8301 320.418 80.8301C309.383 80.8301 299.959 76.9238 292.146 69.1113C284.334 61.2988 280.428 51.875 280.428 40.8398C280.428 29.8047 284.334 20.3809 292.146 12.5684C299.959 4.75586 309.383 0.849609 320.418 0.849609ZM320.418 11.0547C312.182 11.0547 305.151 13.9681 299.324 19.7949C293.53 25.5892 290.633 32.6042 290.633 40.8398C290.633 49.0755 293.546 56.1068 299.373 61.9336C305.2 67.7604 312.215 70.6738 320.418 70.6738C328.654 70.6738 335.669 67.7604 341.463 61.9336C347.29 56.1068 350.203 49.0755 350.203 40.8398C350.203 32.6042 347.29 25.5892 341.463 19.7949C335.669 13.9681 328.654 11.0547 320.418 11.0547Z" fill="black"/>
</svg>
