<svg width="434" height="319" viewBox="0 0 434 319" fill="none" xmlns="http://www.w3.org/2000/svg">
<path d="M299.544 83.5252C293.819 57.8262 267.778 58.5788 267.778 58.5788L265.312 50.0941C262.845 41.6094 248.451 23.8736 226.591 25.444C220.35 25.8941 208.831 29.6098 200.603 37.0995C190.65 31.9229 178.041 29.9226 165.564 36.1293C140.483 48.6128 150.661 66.9484 160.426 89.6798C172.438 117.637 163.676 154.158 163.676 154.158C188.188 116.198 163.471 72.413 162.946 64.9962C161.576 45.5827 179.572 41.9429 196.563 45.4529C211.645 48.5668 220.147 59.5652 220.147 59.5652C219.78 53.9692 214.245 46.154 205.894 40.316C213.949 36.14 228.831 30.9562 241.96 40.2645C261.101 53.8377 261.918 68.5765 261.918 68.5765C261.918 68.5765 291.583 65.4622 287.82 91.4285C284.056 117.398 250.817 105.267 250.817 105.267C273.572 122.019 305.273 109.226 299.547 83.5299L299.544 83.5252Z" fill="white"/>
<path d="M268.907 170.075C268.907 170.075 259.07 129.083 261.89 110.991C261.89 110.991 254.063 130.506 255.056 144.269L256.051 158.03C256.051 158.03 237.314 150.924 197.882 154.898C162.507 158.464 159.357 163.296 159.357 163.296L160.458 183.996C160.458 183.996 166.973 183.09 170.086 182.752C170.086 182.752 199.179 177.268 226.936 176.829C243.564 176.567 253.99 177.605 259.679 178.478C251.162 176.91 233.321 174.13 210.232 173.261C185.61 172.335 172.983 174.321 168.235 175.363C167.899 173.237 167.594 170.616 167.409 167.41C180.19 164.222 202.895 162.155 218.413 162.939C241.101 164.092 268.907 170.076 268.907 170.076V170.075Z" fill="white"/>
<path d="M259.681 178.478C263.235 179.13 265.177 179.575 265.177 179.575C265.177 179.575 263.487 179.063 259.681 178.478Z" fill="white"/>
<path d="M58.3614 194.735H70.1469V258.569C69.127 265.857 66.124 272.012 61.1377 277.034C55.0939 283.076 47.8223 286.097 39.3231 286.097C30.8239 286.097 23.5523 283.095 17.5084 277.09C11.5023 271.049 8.49924 263.779 8.49924 255.284V194.735H20.2849V255.284C20.2849 260.494 22.1357 264.97 25.8376 268.708C29.5773 272.409 34.0725 274.259 39.3231 274.259C44.6115 274.259 49.1066 272.409 52.8085 268.708C56.5104 265.007 58.3614 260.533 58.3614 255.284V194.735ZM131.675 238.858C125.253 236.706 120.04 233.647 116.036 229.682C112.07 225.679 110.087 220.733 110.087 214.842C110.087 209.066 112.145 204.1 116.262 199.946C120.418 195.792 125.442 193.715 131.335 193.715C137.152 193.715 142.138 195.773 146.293 199.889C148.636 202.154 150.599 205.761 152.185 210.708L141.534 214.899C140.249 211.425 139.078 209.16 138.02 208.102C136.169 206.29 133.941 205.384 131.335 205.384C128.69 205.384 126.443 206.308 124.592 208.159C122.741 209.972 121.816 212.199 121.816 214.842C121.816 217.486 122.741 219.732 124.592 221.583C126.67 223.621 129.541 225.491 133.204 227.191C140.306 229.493 146.331 233.118 151.279 238.066C156.832 243.541 159.609 250.186 159.609 258.003C159.609 265.819 156.832 272.503 151.279 278.053C145.765 283.567 139.116 286.323 131.335 286.323C123.515 286.323 116.848 283.548 111.333 277.996C106.913 273.579 104.118 267.481 102.947 259.702L114.336 255.567C115.054 262.25 116.81 266.989 119.605 269.784C122.854 273.032 126.764 274.654 131.335 274.654C135.906 274.654 139.815 273.032 143.063 269.784C146.313 266.537 147.936 262.609 147.936 258.003C147.936 253.433 146.313 249.525 143.063 246.278C139.966 243.181 136.169 240.708 131.675 238.858ZM204.252 247.864V285.36H192.522V194.735H204.252V236.139H232.242V194.735H243.971V285.36H232.242V247.864H204.252ZM295.3 194.735V285.36H283.57V194.735H295.3ZM379.945 193.546C392.75 193.546 403.686 198.077 412.751 207.139C421.818 216.202 426.35 227.134 426.35 239.934C426.35 252.735 421.818 263.667 412.751 272.729C403.686 281.792 392.75 286.323 379.945 286.323C367.14 286.323 356.204 281.792 347.137 272.729C338.072 263.667 333.539 252.735 333.539 239.934C333.539 227.134 338.072 216.202 347.137 207.139C356.204 198.077 367.14 193.546 379.945 193.546ZM379.945 205.384C370.388 205.384 362.229 208.763 355.467 215.522C348.743 222.243 345.382 230.381 345.382 239.934C345.382 249.488 348.762 257.644 355.524 264.403C362.286 271.162 370.426 274.542 379.945 274.542C389.502 274.542 397.643 271.162 404.366 264.403C411.128 257.644 414.508 249.488 414.508 239.934C414.508 230.381 411.128 222.243 404.366 215.522C397.643 208.763 389.502 205.384 379.945 205.384Z" fill="white"/>
</svg>
