<svg width="226" height="226" viewBox="0 0 226 226" fill="none" xmlns="http://www.w3.org/2000/svg">
<g clip-path="url(#clip0_5_15)">
<path d="M184.132 72.0045C179.199 49.8502 156.758 50.499 156.758 50.499L154.633 43.1846C152.507 35.8702 140.103 20.5807 121.265 21.9345C115.887 22.3225 105.96 25.5257 98.87 31.9823C90.2927 27.5197 79.427 25.7953 68.6754 31.1459C47.061 41.9076 55.8317 57.7141 64.2465 77.3102C74.5991 101.411 67.0478 132.895 67.0478 132.895C88.1706 100.171 66.8714 62.425 66.4189 56.0312C65.2377 39.2954 80.7461 36.1577 95.3881 39.1835C108.385 41.8679 115.712 51.3493 115.712 51.3493C115.396 46.5252 110.626 39.7879 103.429 34.7552C110.371 31.1552 123.195 26.6864 134.509 34.7108C151.004 46.4118 151.708 59.1177 151.708 59.1177C151.708 59.1177 177.272 56.4329 174.029 78.8177C170.786 101.205 142.142 90.747 142.142 90.747C161.751 105.189 189.069 94.1607 184.135 72.0085L184.132 72.0045Z" fill="black"/>
<path d="M157.731 146.616C157.731 146.616 149.254 111.278 151.684 95.6819C151.684 95.6819 144.939 112.505 145.795 124.37L146.652 136.233C146.652 136.233 130.506 130.107 96.5253 133.533C66.0408 136.607 63.3262 140.772 63.3262 140.772L64.2747 158.617C64.2747 158.617 69.8889 157.836 72.5716 157.545C72.5716 157.545 97.6432 152.817 121.562 152.439C135.892 152.213 144.876 153.108 149.779 153.86C142.439 152.509 127.065 150.112 107.168 149.363C85.9504 148.565 75.0679 150.277 70.9774 151.175C70.6873 149.342 70.4244 147.083 70.265 144.319C81.2793 141.571 100.845 139.789 114.218 140.465C133.769 141.459 157.731 146.617 157.731 146.617L157.731 146.616Z" fill="black"/>
<path d="M149.78 153.86C152.843 154.422 154.517 154.806 154.517 154.806C154.517 154.806 153.06 154.365 149.78 153.86Z" fill="black"/>
</g>
<defs>
<clipPath id="clip0_5_15">
<rect width="200" height="200" fill="white" transform="translate(27.8346) rotate(8)"/>
</clipPath>
</defs>
</svg>
