<svg width="374" height="275" viewBox="0 0 374 275" fill="none" xmlns="http://www.w3.org/2000/svg">
<g clip-path="url(#clip0_8_31)">
<path d="M258.132 72.0045C253.199 49.8502 230.758 50.499 230.758 50.499L228.633 43.1846C226.507 35.8702 214.103 20.5807 195.265 21.9345C189.887 22.3225 179.96 25.5257 172.87 31.9823C164.293 27.5197 153.427 25.7953 142.675 31.1459C121.061 41.9076 129.832 57.7141 138.247 77.3102C148.599 101.411 141.048 132.895 141.048 132.895C162.171 100.171 140.871 62.425 140.419 56.0312C139.238 39.2954 154.746 36.1577 169.388 39.1835C182.385 41.8679 189.712 51.3493 189.712 51.3493C189.396 46.5252 184.626 39.7879 177.429 34.7552C184.371 31.1552 197.195 26.6864 208.509 34.7108C225.004 46.4118 225.708 59.1177 225.708 59.1177C225.708 59.1177 251.272 56.4329 248.029 78.8177C244.786 101.205 216.142 90.747 216.142 90.747C235.751 105.189 263.069 94.1607 258.135 72.0085L258.132 72.0045Z" fill="black"/>
<path d="M231.731 146.616C231.731 146.616 223.254 111.278 225.684 95.6819C225.684 95.6819 218.939 112.505 219.795 124.37L220.652 136.233C220.652 136.233 204.506 130.107 170.525 133.533C140.041 136.607 137.326 140.772 137.326 140.772L138.275 158.617C138.275 158.617 143.889 157.836 146.572 157.545C146.572 157.545 171.643 152.817 195.562 152.439C209.892 152.213 218.876 153.108 223.779 153.86C216.439 152.509 201.065 150.112 181.168 149.363C159.95 148.565 149.068 150.277 144.977 151.175C144.687 149.342 144.424 147.083 144.265 144.319C155.279 141.571 174.845 139.789 188.218 140.465C207.769 141.459 231.731 146.617 231.731 146.617L231.731 146.616Z" fill="black"/>
<path d="M223.78 153.86C226.843 154.422 228.517 154.806 228.517 154.806C228.517 154.806 227.06 154.365 223.78 153.86Z" fill="black"/>
</g>
<path d="M50.293 167.875H60.4492V222.904C59.5703 229.187 56.9824 234.493 52.6855 238.822C47.4772 244.031 41.2109 246.635 33.8867 246.635C26.5625 246.635 20.2962 244.047 15.0879 238.871C9.91211 233.663 7.32422 227.396 7.32422 220.072V167.875H17.4805V220.072C17.4805 224.564 19.0755 228.422 22.2656 231.645C25.4883 234.835 29.362 236.43 33.8867 236.43C38.444 236.43 42.3177 234.835 45.5078 231.645C48.6979 228.454 50.293 224.597 50.293 220.072V167.875ZM113.471 205.912C107.937 204.057 103.445 201.42 99.9941 198.002C96.5762 194.551 94.8672 190.287 94.8672 185.209C94.8672 180.229 96.6413 175.948 100.189 172.367C103.77 168.786 108.1 166.996 113.178 166.996C118.191 166.996 122.488 168.77 126.068 172.318C128.087 174.271 129.779 177.38 131.146 181.645L121.967 185.258C120.86 182.263 119.851 180.31 118.939 179.398C117.344 177.836 115.424 177.055 113.178 177.055C110.899 177.055 108.962 177.852 107.367 179.447C105.772 181.01 104.975 182.93 104.975 185.209C104.975 187.488 105.772 189.424 107.367 191.02C109.158 192.777 111.632 194.389 114.789 195.854C120.909 197.839 126.101 200.964 130.365 205.229C135.15 209.949 137.543 215.678 137.543 222.416C137.543 229.154 135.15 234.916 130.365 239.701C125.613 244.454 119.883 246.83 113.178 246.83C106.439 246.83 100.694 244.438 95.9414 239.652C92.1328 235.844 89.724 230.587 88.7148 223.881L98.5293 220.316C99.1478 226.078 100.661 230.163 103.07 232.572C105.87 235.372 109.239 236.771 113.178 236.771C117.117 236.771 120.486 235.372 123.285 232.572C126.085 229.773 127.484 226.387 127.484 222.416C127.484 218.477 126.085 215.108 123.285 212.309C120.616 209.639 117.344 207.507 113.471 205.912ZM176.014 213.676V246H165.906V167.875H176.014V203.568H200.135V167.875H210.242V246H200.135V213.676H176.014ZM254.475 167.875V246H244.367V167.875H254.475ZM327.418 166.85C338.453 166.85 347.877 170.756 355.689 178.568C363.502 186.381 367.408 195.805 367.408 206.84C367.408 217.875 363.502 227.299 355.689 235.111C347.877 242.924 338.453 246.83 327.418 246.83C316.383 246.83 306.959 242.924 299.146 235.111C291.334 227.299 287.428 217.875 287.428 206.84C287.428 195.805 291.334 186.381 299.146 178.568C306.959 170.756 316.383 166.85 327.418 166.85ZM327.418 177.055C319.182 177.055 312.151 179.968 306.324 185.795C300.53 191.589 297.633 198.604 297.633 206.84C297.633 215.076 300.546 222.107 306.373 227.934C312.2 233.76 319.215 236.674 327.418 236.674C335.654 236.674 342.669 233.76 348.463 227.934C354.29 222.107 357.203 215.076 357.203 206.84C357.203 198.604 354.29 191.589 348.463 185.795C342.669 179.968 335.654 177.055 327.418 177.055Z" fill="black"/>
<defs>
<clipPath id="clip0_8_31">
<rect width="200" height="200" fill="white" transform="translate(101.835) rotate(8)"/>
</clipPath>
</defs>
</svg>
